<svg width="22" height="22" viewBox="0 0 22 22" fill="none" xmlns="http://www.w3.org/2000/svg">
<path fill-rule="evenodd" clip-rule="evenodd" d="M11.0572 0.75C13.2479 0.74999 14.9686 0.74998 16.312 0.93059C17.6886 1.11568 18.7809 1.50272 19.6391 2.36091C20.4973 3.21911 20.8843 4.31137 21.0694 5.68802C21.25 7.03144 21.25 8.75214 21.25 10.9428V11.0572C21.25 13.2479 21.25 14.9686 21.0694 16.312C20.8843 17.6886 20.4973 18.7809 19.6391 19.6391C18.7809 20.4973 17.6886 20.8843 16.312 21.0694C14.9686 21.25 13.2479 21.25 11.0572 21.25H10.9428C8.7521 21.25 7.03144 21.25 5.68802 21.0694C4.31137 20.8843 3.21911 20.4973 2.36091 19.6391C1.50272 18.7809 1.11568 17.6886 0.93059 16.312C0.74998 14.9686 0.74999 13.2479 0.75 11.0572V10.9428C0.74999 8.75211 0.74998 7.03144 0.93059 5.68802C1.11568 4.31137 1.50272 3.21911 2.36091 2.36091C3.21911 1.50272 4.31137 1.11568 5.68802 0.93059C7.03144 0.74998 8.75212 0.74999 10.9428 0.75H11.0572ZM15.8775 7.02038C16.1425 7.50493 15.9645 8.11257 15.48 8.37756C14.1086 9.1275 12.8208 10.6975 11.8374 12.2032C11.3581 12.9372 10.9735 13.6207 10.709 14.1204C10.577 14.3697 10.4756 14.5721 10.4079 14.7105L10.3096 14.9159C10.1551 15.2536 9.8261 15.4782 9.4553 15.4987C9.0844 15.5191 8.73267 15.3323 8.54198 15.0135C8.23126 14.494 7.73753 14.0198 7.27997 13.6581C7.05764 13.4823 6.85752 13.3437 6.71471 13.2502L6.50442 13.1187C6.02493 12.8449 5.85797 12.2344 6.13152 11.7548C6.40513 11.275 7.01585 11.1079 7.49559 11.3815L7.81063 11.5772C7.99282 11.6965 8.2427 11.8697 8.52038 12.0892C8.73258 12.257 8.96984 12.4587 9.2094 12.6911C9.4662 12.2297 9.7872 11.685 10.1629 11.1096C11.1796 9.5529 12.6917 7.62286 14.5204 6.62282C15.0049 6.35782 15.6125 6.53582 15.8775 7.02038Z" fill="#F3541C"/>
</svg>